<?xml version="1.0" encoding="UTF-8"?>
<svg xmlns="http://www.w3.org/2000/svg" xmlns:xlink="http://www.w3.org/1999/xlink" width="74pt" height="63pt" viewBox="0 0 74 63" version="1.1">
<g id="surface1">
<path style=" stroke:none;fill-rule:nonzero;fill:rgb(93.333333%,93.333333%,93.333333%);fill-opacity:1;" d="M 7.769531 3.703125 L 3.328125 3.828125 L 3.328125 5.925781 L 6.414062 5.925781 C 8.511719 5.925781 9.621094 6.023438 9.816406 6.222656 C 10.039062 6.441406 10.113281 12.761719 10.113281 33.128906 L 10.113281 59.742188 L 12.332031 59.742188 L 12.332031 31.597656 C 12.332031 16.121094 12.308594 3.480469 12.285156 3.503906 C 12.234375 3.53125 10.210938 3.628906 7.769531 3.703125 Z M 11.59375 31.722656 C 11.59375 55.816406 11.542969 59 11.222656 59 C 10.902344 59 10.851562 55.941406 10.851562 32.882812 C 10.851562 8.765625 10.828125 6.738281 10.433594 6.171875 C 9.792969 5.234375 9.667969 5.183594 6.855469 5.183594 C 4.660156 5.183594 4.191406 5.109375 4.191406 4.8125 C 4.191406 4.492188 4.761719 4.445312 7.894531 4.445312 L 11.59375 4.445312 Z M 11.59375 31.722656 "/>
<path style=" stroke:none;fill-rule:nonzero;fill:rgb(93.333333%,93.333333%,93.333333%);fill-opacity:1;" d="M 14.554688 29.425781 L 14.554688 48.507812 L 42.550781 48.460938 L 70.546875 48.386719 L 70.621094 29.378906 L 70.671875 10.367188 L 14.554688 10.367188 Z M 69.808594 29.378906 L 69.808594 47.644531 L 15.292969 47.644531 L 15.292969 11.109375 L 69.808594 11.109375 Z M 69.808594 29.378906 "/>
<path style=" stroke:none;fill-rule:nonzero;fill:rgb(93.333333%,93.333333%,93.333333%);fill-opacity:1;" d="M 17.070312 12.023438 C 16.898438 12.097656 16.601562 12.464844 16.378906 12.886719 C 15.390625 14.789062 17.90625 16.566406 19.214844 14.910156 C 19.90625 14.046875 19.855469 13.304688 19.117188 12.492188 C 18.574219 11.898438 17.808594 11.726562 17.070312 12.023438 Z M 18.699219 12.886719 C 19.4375 13.628906 18.769531 14.910156 17.710938 14.761719 C 16.996094 14.664062 16.550781 13.527344 17.019531 12.984375 C 17.390625 12.515625 18.277344 12.464844 18.699219 12.886719 Z M 18.699219 12.886719 "/>
<path style=" stroke:none;fill-rule:nonzero;fill:rgb(93.333333%,93.333333%,93.333333%);fill-opacity:1;" d="M 48.222656 12.097656 C 41.390625 13.554688 35.816406 19.132812 34.433594 25.847656 C 33.71875 29.277344 34.015625 32.535156 35.273438 35.746094 C 37.664062 41.695312 42.453125 45.621094 48.789062 46.804688 C 52.390625 47.472656 55.769531 46.953125 59.445312 45.128906 C 61.097656 44.289062 61.988281 43.621094 63.640625 41.96875 C 66.03125 39.574219 67.070312 37.941406 68.179688 34.882812 C 68.894531 32.832031 68.941406 32.511719 68.941406 29.378906 C 68.917969 26.390625 68.84375 25.847656 68.226562 24.070312 C 66.304688 18.464844 62.285156 14.464844 56.734375 12.589844 C 54.957031 11.996094 50.023438 11.703125 48.222656 12.097656 Z M 55.128906 12.960938 C 58.707031 13.726562 62.726562 16.242188 64.847656 19.082031 C 69.164062 24.785156 69.484375 32.734375 65.636719 38.535156 C 62.503906 43.277344 57.941406 45.867188 52.269531 46.113281 C 50.171875 46.1875 49.234375 46.113281 47.65625 45.71875 C 42.574219 44.4375 38.675781 41.277344 36.457031 36.660156 C 33.671875 30.859375 34.386719 24.316406 38.332031 19.082031 C 40.476562 16.242188 44.425781 13.699219 47.851562 12.984375 C 49.976562 12.515625 53.007812 12.515625 55.128906 12.960938 Z M 55.128906 12.960938 "/>
<path style=" stroke:none;fill-rule:nonzero;fill:rgb(93.333333%,93.333333%,93.333333%);fill-opacity:1;" d="M 48.421875 15.183594 C 42.082031 16.566406 37.542969 21.898438 37.074219 28.539062 C 36.480469 36.734375 43.265625 43.964844 51.554688 43.941406 C 55.523438 43.941406 58.902344 42.511719 61.816406 39.621094 C 67.5625 33.945312 67.5625 24.910156 61.816406 19.15625 C 58.238281 15.550781 53.355469 14.121094 48.421875 15.183594 Z M 54.710938 16.046875 C 55.179688 16.195312 54.660156 16.269531 53.105469 16.269531 C 50.171875 16.292969 49.011719 16.738281 48.101562 18.167969 C 47.558594 19.035156 47.433594 19.550781 47.382812 20.910156 C 47.359375 21.824219 47.457031 22.984375 47.605469 23.453125 C 47.828125 24.265625 47.804688 24.367188 46.890625 25.253906 C 45.78125 26.363281 45.65625 26.339844 43.660156 24.5625 C 41.339844 22.515625 40.601562 22.316406 39.464844 23.453125 C 38.554688 24.367188 38.949219 23.328125 40.183594 21.574219 C 42.96875 17.601562 47.78125 15.332031 52.613281 15.726562 C 53.402344 15.800781 54.367188 15.949219 54.710938 16.046875 Z M 61.421875 19.773438 C 64.75 23.105469 66.058594 27.722656 65.070312 32.488281 L 64.75 33.945312 L 64.625 30.980469 C 64.480469 27.671875 64.132812 26.761719 62.726562 25.894531 C 61.691406 25.253906 59.59375 25.03125 57.992188 25.425781 C 56.734375 25.722656 56.734375 25.722656 55.769531 24.910156 C 55.230469 24.441406 54.785156 23.945312 54.785156 23.773438 C 54.761719 23.625 55.300781 22.910156 55.945312 22.167969 C 58.433594 19.402344 58.683594 18.6875 57.671875 17.402344 L 57.128906 16.6875 L 58.460938 17.429688 C 59.199219 17.824219 60.53125 18.886719 61.421875 19.773438 Z M 57.128906 17.847656 C 57.84375 18.6875 57.769531 18.933594 55.820312 21.230469 C 53.699219 23.699219 53.675781 23.871094 55.253906 25.378906 C 56.363281 26.464844 56.632812 26.585938 57.128906 26.414062 C 57.449219 26.292969 58.410156 26.117188 59.273438 26.019531 C 61.347656 25.820312 62.851562 26.414062 63.46875 27.722656 C 64.058594 28.957031 64.058594 33.351562 63.441406 34.5625 C 62.753906 35.992188 62.035156 35.871094 59.914062 33.945312 C 58.929688 33.054688 57.769531 32.242188 57.375 32.140625 C 56.707031 31.96875 56.511719 32.066406 55.5 33.054688 L 54.390625 34.191406 L 54.710938 35.179688 C 55.253906 36.78125 55.203125 38.980469 54.636719 39.992188 C 53.773438 41.449219 52.859375 41.746094 49.554688 41.671875 C 47.136719 41.597656 46.59375 41.523438 46.152344 41.128906 C 45.335938 40.386719 45.511719 39.671875 46.890625 38.089844 C 47.605469 37.300781 48.371094 36.3125 48.617188 35.917969 C 49.113281 35.152344 49.234375 34.3125 48.890625 34.3125 C 48.789062 34.3125 48.246094 33.871094 47.707031 33.351562 L 46.742188 32.390625 L 45.386719 32.734375 C 42.796875 33.402344 40.945312 33.007812 39.886719 31.550781 C 38.949219 30.265625 39.023438 24.882812 39.984375 23.921875 C 40.726562 23.179688 41.292969 23.351562 42.847656 24.761719 C 43.636719 25.476562 44.546875 26.265625 44.894531 26.488281 C 45.535156 26.933594 46.621094 27.054688 46.621094 26.6875 C 46.621094 26.5625 47.0625 26.019531 47.632812 25.476562 C 48.59375 24.488281 48.617188 24.441406 48.371094 23.527344 C 47.976562 22.167969 48.050781 19.601562 48.445312 18.785156 C 48.863281 18.019531 49.679688 17.378906 50.589844 17.207031 C 50.910156 17.132812 52.390625 17.109375 53.871094 17.132812 C 56.460938 17.207031 56.585938 17.230469 57.128906 17.847656 Z M 39.144531 31.746094 C 39.417969 32.289062 40.035156 32.957031 40.601562 33.277344 C 41.441406 33.769531 41.808594 33.820312 43.535156 33.746094 C 44.621094 33.671875 45.730469 33.574219 46.003906 33.476562 C 46.347656 33.375 46.742188 33.550781 47.3125 34.09375 C 48.371094 35.054688 48.273438 35.449219 46.496094 37.472656 C 44.917969 39.277344 44.648438 40.042969 45.214844 41.027344 C 45.4375 41.398438 45.558594 41.71875 45.484375 41.71875 C 45.042969 41.71875 43.265625 40.558594 42.105469 39.5 C 38.703125 36.386719 37.148438 31.625 38.011719 26.910156 L 38.332031 25.058594 L 38.503906 27.921875 C 38.601562 30.09375 38.75 31.03125 39.144531 31.746094 Z M 58.113281 33.476562 C 58.632812 33.84375 59.59375 34.609375 60.234375 35.203125 C 61.492188 36.386719 62.382812 36.585938 63.34375 35.894531 C 64.085938 35.375 64.035156 35.648438 63.121094 37.078125 C 61.320312 39.867188 57.964844 42.113281 54.4375 42.878906 C 52.664062 43.25 48.46875 43.175781 48.050781 42.757812 C 47.953125 42.660156 48.964844 42.558594 50.296875 42.558594 C 52.738281 42.535156 53.429688 42.335938 54.464844 41.375 C 55.671875 40.289062 56.117188 37.722656 55.476562 35.472656 C 55.253906 34.609375 55.277344 34.488281 56.042969 33.695312 C 56.488281 33.226562 56.90625 32.832031 57.003906 32.832031 C 57.078125 32.832031 57.597656 33.128906 58.113281 33.476562 Z M 58.113281 33.476562 "/>
<path style=" stroke:none;fill-rule:nonzero;fill:rgb(93.333333%,93.333333%,93.333333%);fill-opacity:1;" d="M 51.058594 19.429688 C 50.492188 19.652344 50.320312 20.019531 50.34375 21.105469 C 50.34375 22.636719 50.839844 23.773438 51.503906 23.824219 C 51.949219 23.847656 52.046875 23.75 52.046875 23.132812 C 52.046875 22.367188 52.636719 21.378906 53.871094 20.046875 L 54.613281 19.253906 L 53.007812 19.28125 C 52.144531 19.28125 51.257812 19.355469 51.058594 19.429688 Z M 52.539062 20.390625 C 52.539062 20.464844 52.316406 20.8125 52.046875 21.15625 C 51.773438 21.503906 51.554688 21.945312 51.554688 22.144531 C 51.554688 22.339844 51.453125 22.414062 51.308594 22.339844 C 51.183594 22.265625 51.058594 21.75 51.058594 21.207031 C 51.058594 20.292969 51.109375 20.242188 51.800781 20.242188 C 52.21875 20.242188 52.539062 20.316406 52.539062 20.390625 Z M 52.539062 20.390625 "/>
<path style=" stroke:none;fill-rule:nonzero;fill:rgb(93.333333%,93.333333%,93.333333%);fill-opacity:1;" d="M 49.800781 26.585938 C 47.902344 27.746094 47.828125 31.15625 49.679688 32.140625 C 52.195312 33.5 54.761719 32.167969 54.761719 29.523438 C 54.761719 27.425781 53.527344 26.167969 51.503906 26.167969 C 50.9375 26.167969 50.148438 26.363281 49.800781 26.585938 Z M 53.429688 27.671875 C 53.898438 28.117188 54.019531 28.488281 54.019531 29.425781 C 54.019531 31.105469 53.28125 31.84375 51.601562 31.84375 C 49.875 31.84375 49.085938 31.082031 49.085938 29.425781 C 49.085938 28.214844 49.554688 27.476562 50.566406 27.082031 C 51.28125 26.785156 52.835938 27.105469 53.429688 27.671875 Z M 53.429688 27.671875 "/>
<path style=" stroke:none;fill-rule:nonzero;fill:rgb(93.333333%,93.333333%,93.333333%);fill-opacity:1;" d="M 50.9375 27.699219 C 50.171875 28.09375 49.828125 28.660156 49.828125 29.425781 C 49.828125 30.265625 50.8125 31.351562 51.554688 31.351562 C 52.292969 31.351562 53.28125 30.265625 53.28125 29.449219 C 53.253906 28.660156 52.910156 28.09375 52.121094 27.699219 C 51.480469 27.351562 51.554688 27.351562 50.9375 27.699219 Z M 52.292969 28.636719 C 52.566406 28.90625 52.785156 29.230469 52.785156 29.378906 C 52.785156 29.5 52.566406 29.847656 52.292969 30.117188 C 52.023438 30.390625 51.703125 30.609375 51.554688 30.609375 C 51.429688 30.609375 51.085938 30.390625 50.8125 30.117188 C 50.542969 29.847656 50.320312 29.5 50.320312 29.378906 C 50.320312 29.230469 50.542969 28.90625 50.8125 28.636719 C 51.085938 28.363281 51.429688 28.144531 51.554688 28.144531 C 51.703125 28.144531 52.023438 28.363281 52.292969 28.636719 Z M 52.292969 28.636719 "/>
<path style=" stroke:none;fill-rule:nonzero;fill:rgb(93.333333%,93.333333%,93.333333%);fill-opacity:1;" d="M 41.441406 27.847656 C 41.441406 29.871094 41.660156 30.585938 42.351562 30.757812 C 42.96875 30.933594 45.238281 30.511719 45.804688 30.167969 C 46.273438 29.871094 45.90625 28.882812 45.335938 28.882812 C 44.71875 28.882812 43.191406 28.09375 42.203125 27.277344 L 41.441406 26.613281 Z M 43.5625 29.054688 L 44.769531 29.722656 L 43.832031 29.945312 C 42.597656 30.242188 42.179688 30.042969 42.179688 29.128906 C 42.179688 28.734375 42.230469 28.390625 42.277344 28.390625 C 42.328125 28.390625 42.894531 28.6875 43.5625 29.054688 Z M 43.5625 29.054688 "/>
<path style=" stroke:none;fill-rule:nonzero;fill:rgb(93.333333%,93.333333%,93.333333%);fill-opacity:1;" d="M 58.214844 28.511719 C 57.277344 28.808594 57.101562 28.980469 57.101562 29.5 C 57.101562 30.019531 57.226562 30.117188 57.84375 30.117188 C 58.65625 30.117188 59.914062 30.785156 61.023438 31.820312 L 61.714844 32.460938 L 61.617188 30.5625 C 61.566406 29.523438 61.46875 28.585938 61.371094 28.511719 C 61.050781 28.167969 59.273438 28.191406 58.214844 28.511719 Z M 60.679688 29.871094 L 60.679688 30.585938 L 59.765625 29.96875 C 59.25 29.625 58.804688 29.304688 58.730469 29.230469 C 58.683594 29.179688 59.078125 29.128906 59.644531 29.128906 C 60.628906 29.128906 60.679688 29.179688 60.679688 29.871094 Z M 60.679688 29.871094 "/>
<path style=" stroke:none;fill-rule:nonzero;fill:rgb(93.333333%,93.333333%,93.333333%);fill-opacity:1;" d="M 51.058594 35.472656 C 51.058594 36.289062 50.246094 37.796875 49.332031 38.734375 L 48.542969 39.5 L 50.246094 39.5 C 52.390625 39.5 52.859375 39.203125 52.835938 37.796875 C 52.8125 36.191406 52.367188 35.128906 51.675781 34.980469 C 51.160156 34.90625 51.058594 34.980469 51.058594 35.472656 Z M 51.996094 37.449219 C 51.921875 38.535156 51.875 38.632812 51.257812 38.707031 C 50.863281 38.757812 50.566406 38.734375 50.566406 38.660156 C 50.566406 38.3125 51.675781 36.289062 51.875 36.289062 C 51.972656 36.289062 52.046875 36.808594 51.996094 37.449219 Z M 51.996094 37.449219 "/>
<path style=" stroke:none;fill-rule:nonzero;fill:rgb(93.333333%,93.333333%,93.333333%);fill-opacity:1;" d="M 65.957031 12.515625 C 65.464844 13.058594 65.367188 13.355469 65.464844 13.949219 C 65.785156 15.527344 67.613281 16.09375 68.546875 14.910156 C 69.238281 14.046875 69.191406 13.304688 68.449219 12.492188 C 67.660156 11.652344 66.746094 11.652344 65.957031 12.515625 Z M 68.03125 12.886719 C 68.722656 13.578125 68.203125 14.8125 67.214844 14.8125 C 66.550781 14.8125 66.105469 14.367188 66.105469 13.699219 C 66.105469 13.035156 66.550781 12.589844 67.214844 12.589844 C 67.511719 12.589844 67.859375 12.714844 68.03125 12.886719 Z M 68.03125 12.886719 "/>
<path style=" stroke:none;fill-rule:nonzero;fill:rgb(93.333333%,93.333333%,93.333333%);fill-opacity:1;" d="M 21.289062 14.613281 C 21.015625 14.933594 20.695312 15.429688 20.597656 15.726562 C 20.496094 16.144531 20.25 16.292969 19.757812 16.292969 C 18.796875 16.292969 18.5 16.710938 18.5 18.144531 C 18.5 19.550781 18.96875 20.242188 19.929688 20.242188 C 20.226562 20.242188 20.472656 20.339844 20.472656 20.488281 C 20.472656 20.613281 20.152344 20.738281 19.78125 20.738281 C 18.769531 20.738281 18.5 21.15625 18.5 22.710938 C 18.5 24.265625 18.769531 24.6875 19.78125 24.6875 C 20.300781 24.6875 20.769531 24.984375 21.507812 25.796875 L 22.546875 26.910156 L 24.914062 26.910156 C 27.503906 26.910156 28.09375 26.6875 28.589844 25.476562 C 28.8125 24.957031 29.132812 24.710938 29.796875 24.539062 C 30.710938 24.316406 30.710938 24.316406 30.785156 22.882812 C 30.859375 21.230469 30.585938 20.738281 29.574219 20.738281 C 29.179688 20.738281 28.859375 20.613281 28.859375 20.488281 C 28.859375 20.339844 29.132812 20.242188 29.425781 20.242188 C 30.339844 20.242188 30.832031 19.503906 30.832031 18.121094 C 30.832031 16.6875 30.539062 16.292969 29.476562 16.292969 C 28.859375 16.292969 28.710938 16.195312 28.6875 15.726562 C 28.664062 15.429688 28.34375 14.933594 27.996094 14.613281 C 27.40625 14.121094 27.109375 14.070312 24.566406 14.070312 C 22.003906 14.070312 21.757812 14.121094 21.289062 14.613281 Z M 27.75 15.304688 C 28.019531 15.601562 28.144531 16.023438 28.070312 16.417969 C 27.949219 17.007812 27.996094 17.035156 29.132812 17.035156 L 30.339844 17.035156 L 30.339844 19.253906 L 27.996094 19.253906 L 27.996094 21.476562 L 30.339844 21.476562 L 30.339844 23.824219 L 29.230469 23.75 C 28.144531 23.648438 28.121094 23.675781 28.121094 24.367188 C 28.121094 25.699219 27.75 25.894531 24.960938 25.96875 C 22.496094 26.042969 22.445312 26.042969 22.445312 25.476562 C 22.445312 25.058594 22.296875 24.933594 21.804688 24.933594 C 21.3125 24.933594 21.1875 24.835938 21.261719 24.367188 C 21.335938 23.871094 21.238281 23.824219 20.152344 23.824219 L 18.992188 23.824219 L 18.992188 21.476562 L 21.335938 21.476562 L 21.335938 20.367188 L 21.363281 19.253906 L 18.992188 19.253906 L 18.992188 17.035156 L 20.175781 17.035156 C 21.363281 17.035156 21.363281 17.007812 21.261719 16.34375 C 21.089844 15.058594 21.65625 14.8125 24.640625 14.8125 C 26.984375 14.8125 27.355469 14.859375 27.75 15.304688 Z M 27.75 15.304688 "/>
<path style=" stroke:none;fill-rule:nonzero;fill:rgb(93.333333%,93.333333%,93.333333%);fill-opacity:1;" d="M 23.433594 20.367188 L 23.433594 23.699219 L 25.898438 23.699219 L 25.898438 17.035156 L 23.433594 17.035156 Z M 24.914062 20.367188 C 24.914062 21.921875 24.816406 22.957031 24.667969 22.957031 C 24.519531 22.957031 24.421875 21.921875 24.421875 20.367188 C 24.421875 18.8125 24.519531 17.773438 24.667969 17.773438 C 24.816406 17.773438 24.914062 18.8125 24.914062 20.367188 Z M 24.914062 20.367188 "/>
<path style=" stroke:none;fill-rule:nonzero;fill:rgb(93.333333%,93.333333%,93.333333%);fill-opacity:1;" d="M 21.113281 32.859375 C 20.769531 33.277344 20.472656 33.769531 20.472656 33.96875 C 20.472656 34.191406 20.226562 34.3125 19.78125 34.3125 C 18.796875 34.3125 18.5 34.734375 18.5 36.164062 C 18.5 37.597656 18.796875 38.015625 19.78125 38.015625 C 20.226562 38.015625 20.472656 38.140625 20.472656 38.386719 C 20.472656 38.632812 20.226562 38.757812 19.78125 38.757812 C 18.796875 38.757812 18.5 39.175781 18.5 40.632812 C 18.5 42.066406 18.992188 42.832031 19.78125 42.632812 C 20.078125 42.535156 20.597656 42.855469 21.363281 43.621094 L 22.496094 44.757812 L 24.566406 44.878906 C 27.085938 45.003906 27.921875 44.707031 28.488281 43.546875 C 28.761719 42.929688 29.03125 42.707031 29.476562 42.707031 C 30.414062 42.707031 30.832031 42.089844 30.832031 40.632812 C 30.832031 39.175781 30.539062 38.757812 29.550781 38.757812 C 29.105469 38.757812 28.859375 38.632812 28.859375 38.386719 C 28.859375 38.140625 29.105469 38.015625 29.550781 38.015625 C 30.539062 38.015625 30.832031 37.597656 30.832031 36.164062 C 30.832031 34.734375 30.539062 34.3125 29.574219 34.3125 C 29.082031 34.3125 28.835938 34.167969 28.738281 33.746094 C 28.636719 33.449219 28.316406 32.957031 28.046875 32.636719 C 27.578125 32.140625 27.332031 32.09375 24.640625 32.09375 L 21.757812 32.09375 Z M 27.875 33.300781 C 27.996094 33.574219 28.121094 34.066406 28.121094 34.414062 C 28.121094 35.003906 28.195312 35.054688 29.230469 35.054688 L 30.339844 35.054688 L 30.339844 37.277344 L 27.996094 37.277344 L 28.070312 38.386719 L 28.167969 39.5 L 30.339844 39.5 L 30.339844 41.71875 L 29.230469 41.71875 C 28.167969 41.71875 28.121094 41.746094 28.121094 42.4375 C 28.121094 43.71875 27.625 43.941406 24.886719 43.941406 C 22.621094 43.941406 22.445312 43.917969 22.445312 43.449219 C 22.445312 43.078125 22.273438 42.953125 21.804688 42.953125 C 21.238281 42.953125 21.1875 42.878906 21.3125 42.335938 C 21.460938 41.746094 21.433594 41.71875 20.226562 41.71875 L 18.992188 41.71875 L 18.992188 39.5 L 21.363281 39.5 L 21.335938 38.386719 L 21.335938 37.277344 L 18.992188 37.277344 L 18.992188 35.054688 L 20.226562 35.054688 C 21.410156 35.054688 21.460938 35.03125 21.3125 34.460938 C 21.238281 34.140625 21.289062 33.621094 21.460938 33.351562 C 21.707031 32.859375 21.929688 32.832031 24.667969 32.832031 C 27.332031 32.832031 27.625 32.882812 27.875 33.300781 Z M 27.875 33.300781 "/>
<path style=" stroke:none;fill-rule:nonzero;fill:rgb(93.333333%,93.333333%,93.333333%);fill-opacity:1;" d="M 23.433594 38.386719 L 23.433594 41.71875 L 25.898438 41.71875 L 25.898438 35.054688 L 23.433594 35.054688 Z M 24.914062 38.386719 C 24.914062 39.941406 24.816406 40.980469 24.667969 40.980469 C 24.519531 40.980469 24.421875 39.941406 24.421875 38.386719 C 24.421875 36.832031 24.519531 35.796875 24.667969 35.796875 C 24.816406 35.796875 24.914062 36.832031 24.914062 38.386719 Z M 24.914062 38.386719 "/>
<path style=" stroke:none;fill-rule:nonzero;fill:rgb(93.333333%,93.333333%,93.333333%);fill-opacity:1;" d="M 16.675781 43.964844 C 16.328125 44.386719 16.035156 44.953125 16.035156 45.226562 C 16.035156 45.816406 17.316406 47.152344 17.882812 47.152344 C 18.5 47.152344 19.734375 45.792969 19.734375 45.101562 C 19.734375 44.335938 18.625 43.203125 17.882812 43.203125 C 17.539062 43.203125 17.042969 43.523438 16.675781 43.964844 Z M 18.699219 44.238281 C 19.164062 44.707031 19.042969 45.597656 18.449219 46.015625 C 17.980469 46.335938 17.835938 46.359375 17.390625 46.066406 C 16.75 45.644531 16.625 44.855469 17.144531 44.335938 C 17.613281 43.867188 18.277344 43.820312 18.699219 44.238281 Z M 18.699219 44.238281 "/>
<path style=" stroke:none;fill-rule:nonzero;fill:rgb(93.333333%,93.333333%,93.333333%);fill-opacity:1;" d="M 66.007812 43.964844 C 65.664062 44.386719 65.367188 44.953125 65.367188 45.226562 C 65.367188 45.816406 66.648438 47.152344 67.214844 47.152344 C 67.785156 47.152344 69.066406 45.816406 69.066406 45.226562 C 69.066406 44.484375 67.882812 43.203125 67.214844 43.203125 C 66.871094 43.203125 66.378906 43.523438 66.007812 43.964844 Z M 68.078125 44.289062 C 68.476562 44.804688 68.300781 45.671875 67.710938 46.066406 C 67.265625 46.359375 67.117188 46.335938 66.648438 46.015625 C 66.351562 45.816406 66.105469 45.375 66.105469 45.054688 C 66.105469 44.089844 67.464844 43.570312 68.078125 44.289062 Z M 68.078125 44.289062 "/>
<path style=" stroke:none;fill-rule:nonzero;fill:rgb(93.333333%,93.333333%,93.333333%);fill-opacity:1;" d="M 5.425781 18.144531 L 5.425781 21.722656 L 7.769531 21.722656 L 7.769531 14.566406 L 5.425781 14.566406 Z M 6.90625 18.269531 C 6.90625 20.515625 6.832031 20.984375 6.535156 20.984375 C 6.242188 20.984375 6.167969 20.515625 6.167969 18.269531 C 6.167969 16.023438 6.242188 15.550781 6.535156 15.550781 C 6.832031 15.550781 6.90625 16.023438 6.90625 18.269531 Z M 6.90625 18.269531 "/>
<path style=" stroke:none;fill-rule:nonzero;fill:rgb(93.333333%,93.333333%,93.333333%);fill-opacity:1;" d="M 3.378906 28.316406 C 3.355469 28.339844 3.355469 28.859375 3.402344 29.476562 L 3.503906 30.609375 L 7.894531 30.609375 L 7.894531 28.265625 L 5.648438 28.265625 C 4.414062 28.265625 3.402344 28.289062 3.378906 28.316406 Z M 6.90625 29.378906 C 6.90625 29.5 6.289062 29.625 5.550781 29.625 C 4.808594 29.625 4.191406 29.5 4.191406 29.378906 C 4.191406 29.230469 4.808594 29.128906 5.550781 29.128906 C 6.289062 29.128906 6.90625 29.230469 6.90625 29.378906 Z M 6.90625 29.378906 "/>
<path style=" stroke:none;fill-rule:nonzero;fill:rgb(93.333333%,93.333333%,93.333333%);fill-opacity:1;" d="M 5.425781 38.386719 L 5.425781 41.96875 L 7.894531 41.96875 L 7.894531 34.808594 L 5.425781 34.808594 Z M 6.90625 38.386719 C 6.90625 40.535156 6.832031 40.980469 6.535156 40.980469 C 6.242188 40.980469 6.167969 40.535156 6.167969 38.386719 C 6.167969 36.238281 6.242188 35.796875 6.535156 35.796875 C 6.832031 35.796875 6.90625 36.238281 6.90625 38.386719 Z M 6.90625 38.386719 "/>
<path style=" stroke:none;fill-rule:nonzero;fill:rgb(93.333333%,93.333333%,93.333333%);fill-opacity:1;" d="M 3.402344 47.300781 C 3.355469 47.917969 3.355469 48.433594 3.355469 48.460938 C 3.378906 48.484375 4.414062 48.484375 5.648438 48.433594 L 7.894531 48.359375 L 7.894531 46.164062 L 3.503906 46.164062 Z M 6.90625 47.398438 C 6.90625 47.523438 6.289062 47.644531 5.550781 47.644531 C 4.808594 47.644531 4.191406 47.523438 4.191406 47.398438 C 4.191406 47.25 4.808594 47.152344 5.550781 47.152344 C 6.289062 47.152344 6.90625 47.25 6.90625 47.398438 Z M 6.90625 47.398438 "/>
<path style=" stroke:none;fill-rule:nonzero;fill:rgb(93.333333%,93.333333%,93.333333%);fill-opacity:1;" d="M 28.121094 54.113281 L 28.121094 57.519531 L 30.339844 57.519531 L 30.339844 52.828125 L 32.558594 52.828125 L 32.558594 57.519531 L 34.78125 57.519531 L 34.78125 52.828125 L 37 52.828125 L 37 57.519531 L 39.21875 57.519531 L 39.21875 52.828125 L 41.441406 52.828125 L 41.441406 57.519531 L 43.660156 57.519531 L 43.660156 52.804688 L 44.792969 52.878906 L 45.953125 52.953125 L 45.90625 55.222656 L 45.855469 57.519531 L 48.101562 57.519531 L 48.101562 52.828125 L 50.589844 52.828125 L 50.542969 55.101562 L 50.492188 57.394531 L 52.8125 57.542969 L 52.761719 55.25 L 52.710938 52.953125 L 53.871094 52.878906 L 55.007812 52.804688 L 55.007812 57.519531 L 57.226562 57.519531 L 57.226562 52.828125 L 59.445312 52.828125 L 59.445312 57.519531 L 61.667969 57.519531 L 61.667969 50.730469 L 28.121094 50.730469 Z M 54.585938 51.59375 L 60.679688 51.59375 L 60.679688 54.0625 C 60.679688 55.542969 60.582031 56.53125 60.433594 56.53125 C 60.285156 56.53125 60.1875 55.792969 60.1875 54.804688 C 60.1875 52.679688 59.71875 52.015625 58.261719 52.113281 C 56.78125 52.210938 56.488281 52.632812 56.488281 54.730469 C 56.488281 56.160156 56.414062 56.53125 56.117188 56.53125 C 55.820312 56.53125 55.746094 56.1875 55.746094 54.851562 C 55.746094 52.828125 55.449219 52.359375 54.070312 52.164062 C 52.441406 51.941406 52.046875 52.457031 52.046875 54.730469 C 52.046875 56.359375 51.996094 56.53125 51.554688 56.53125 C 51.109375 56.53125 51.058594 56.359375 51.058594 54.753906 C 51.058594 53.472656 50.960938 52.878906 50.640625 52.53125 C 50.074219 51.914062 48.644531 51.941406 47.925781 52.632812 C 47.433594 53.074219 47.359375 53.398438 47.359375 54.851562 C 47.359375 56.1875 47.285156 56.53125 46.988281 56.53125 C 46.695312 56.53125 46.621094 56.160156 46.621094 54.707031 C 46.621094 53.074219 46.546875 52.804688 46.078125 52.484375 C 45.3125 51.941406 44.003906 51.988281 43.414062 52.582031 C 43.019531 52.976562 42.921875 53.398438 42.921875 54.804688 C 42.921875 56.1875 42.847656 56.53125 42.550781 56.53125 C 42.253906 56.53125 42.179688 56.160156 42.179688 54.753906 C 42.179688 52.582031 41.835938 52.089844 40.304688 52.089844 C 38.851562 52.089844 38.480469 52.65625 38.480469 54.851562 C 38.480469 56.1875 38.40625 56.53125 38.109375 56.53125 C 37.8125 56.53125 37.738281 56.1875 37.738281 54.851562 C 37.738281 52.65625 37.371094 52.089844 35.890625 52.089844 C 34.410156 52.089844 34.039062 52.65625 34.039062 54.851562 C 34.039062 56.1875 33.964844 56.53125 33.671875 56.53125 C 33.375 56.53125 33.300781 56.1875 33.300781 54.804688 C 33.300781 52.730469 32.855469 52.089844 31.402344 52.089844 C 29.945312 52.089844 29.601562 52.605469 29.601562 54.730469 C 29.601562 56.160156 29.527344 56.53125 29.230469 56.53125 C 28.933594 56.53125 28.859375 56.085938 28.859375 54.089844 L 28.859375 51.621094 L 30.042969 51.546875 C 30.683594 51.496094 35.101562 51.496094 39.835938 51.519531 C 44.597656 51.570312 51.207031 51.59375 54.585938 51.59375 Z M 54.585938 51.59375 "/>
</g>
</svg>
